{"title":"This Is The End 2013 TS XViD - VAiN [PublicHash]","uid":8751355,"size":1509263276,"categoryP":"video","categoryS":"movies","magnet":"?xt=urn:btih:fe135235a7d53bd1a2189e264090abed535d7dd1&amp;dn=This+Is+The+End+2013+TS+XViD+-+VAiN+%5BPublicHash%5D&amp;tr=udp%3A%2F%2Ftracker.openbittorrent.com%3A80&amp;tr=udp%3A%2F%2Fopen.demonii.com%3A1337&amp;tr=udp%3A%2F%2Ftracker.coppersurfer.tk%3A6969&amp;tr=udp%3A%2F%2Fexodus.desync.com%3A6969","seeders":1,"leechers":0,"uploader":"R0thschild","files":4,"time":1375039961,"description":"              ***********************************************\n\n                PublicHash - Largest Bittorrent Community\n      \n                         &lt;a href=&quot; http://publichash.com/&quot; rel=&quot;nofollow&quot; target=&quot;_NEW&quot;&gt; http://publichash.com/&lt;/a&gt;\n\n          Crystal Clean files - Fast Speed! No Virus! No Fake! Enjoy!\n    \n              ***********************************************\n\nThis Is the End (2013)\n107 min  -  Comedy | Fantasy  -  12 June 2013 (USA)\nIMDB rating: 8.0\n\nWhile attending a party at James Franco's house, Seth Rogen, Jay Baruchel and many other celebrities are faced with the apocalypse.\n\nDirectors: Evan Goldberg, Seth Rogen\nWriters: Seth Rogen (screenplay), Evan Goldberg (screenplay)\n\nScreens: &lt;a href=&quot;\nhttp://imgsure.com/?p=327568&quot; rel=&quot;nofollow&quot; target=&quot;_NEW&quot;&gt;\nhttp://imgsure.com/?p=327568&lt;/a&gt; &lt;a href=&quot;\nhttp://imgsure.com/?p=659185&quot; rel=&quot;nofollow&quot; target=&quot;_NEW&quot;&gt;\nhttp://imgsure.com/?p=659185&lt;/a&gt;\n\n\nThis Is The End 2013 TS XViD - VAiN\n\nT E C H N i C A L . i N F O\n\nGeneral\nComplete name: This Is The End 2013 TS XViD - VAiN.avi\nFormat: AVI\nFormat/Info: Audio Video Interleave\nFile size: 1.38 GiB\nDuration: 1h 40mn\nOverall bit rate: 1 967 Kbps\nWriting application: VirtualDubMod 1.5.10.2 (build 2540/release)\nWriting library: VirtualDubMod build 2540/release\n\nVideo\nID: 0\nFormat: MPEG-4 Visual\nFormat profile: Advanced Simple@L5\nFormat settings, BVOP: 2\nFormat settings, QPel: No\nFormat settings, GMC: No warppoints\nFormat settings, Matrix: Default (MPEG)\nMuxing mode: Packed bitstream\nCodec ID: XVID\nCodec ID/Hint: XviD\nDuration: 1h 40mn\nBit rate: 1 827 Kbps\nWidth: 720 pixels\nHeight: 384 pixels\nDisplay aspect ratio: 3:2\nOriginal display aspect ratio: 1.85:1\nFrame rate: 29.970 fps\nColor space: YUV\nChroma subsampling: 4:2:0\nBit depth: 8 bits\nScan type: Progressive\nCompression mode: Lossy\nBits/(Pixel*Frame): 0.221\nStream size: 1.29 GiB (93%)\nWriting library: XviD 64\n\nAudio\nID: 1\nFormat: MPEG Audio\nFormat version: Version 1\nFormat profile: Layer 3\nCodec ID: 55\nCodec ID/Hint: MP3\nDuration: 1h 40mn\nBit rate mode: Constant\nBit rate: 128 Kbps\nChannel(s): 2 channels\nSampling rate: 44.1 KHz\nCompression mode: Lossy\nStream size: 92.2 MiB (7%)\nAlignment: Split accross interleaves\nInterleave, duration: 33 ms (1.00 video frame)\nInterleave, preload duration: 500 ms\n\n\nIMDB: http://www.imdb.com/title/tt1245492/","torrent":{"xt":"urn:btih:fe135235a7d53bd1a2189e264090abed535d7dd1","amp;dn":"This+Is+The+End+2013+TS+XViD+-+VAiN+%5BPublicHash%5D","amp;tr":["udp%3A%2F%2Ftracker.openbittorrent.com%3A80","udp%3A%2F%2Fopen.demonii.com%3A1337","udp%3A%2F%2Ftracker.coppersurfer.tk%3A6969","udp%3A%2F%2Fexodus.desync.com%3A6969"],"infoHash":"fe135235a7d53bd1a2189e264090abed535d7dd1","infoHashBuffer":{"type":"Buffer","data":[254,19,82,53,167,213,59,209,162,24,158,38,64,144,171,237,83,93,125,209]},"announce":[],"urlList":[]}}